PathFileType        4      (X/Y/Z)      C:\Users\u0101727\OneDrive - KU Leuven\reference_data\TRC\gait_64.trc         																																																																																																																																																																																		
DataRate	CameraRate	NumFrames	NumMarkers	Units	OrigDataRate	OrigDataStartFrame	OrigNumFrames																																																																																																																																																																											
100	100	8	59	m	100	331	441																																																																																																																																																																											
Frame#	Time	LPSI			RPSI			LKNE			LTHI1			LTHI2			LTHI3			LTIB1			LTIB2			LTIB3			foot_l1			foot_l2			foot_l5			foot_l6			RANK_med			Foot_r10			RSHO			LSHO			hum_l2			LELB			rad_l2			LW2			LH			hum_r2			RELB			rad_r2			foot_l9			LANK_med			Foot_r1			foot_l7			LANK			foot_l3			RTIB3			Foot_r2			Foot_r5			Foot_r9			RW2			RTIB2			LW1			RKNE			Foot_r4			Foot_r7			RH			Foot_r6			foot_l10			RTIB1			RANK			RTHI1			RTHI3			RW1			Foot_r8			RASI			foot_l4			CLAV			Foot_r3			LASI			LKNE_med			RKNE_med			RTHI2			foot_l8		
		X1	Y1	Z1	X2	Y2	Z2	X3	Y3	Z3	X4	Y4	Z4	X5	Y5	Z5	X6	Y6	Z6	X7	Y7	Z7	X8	Y8	Z8	X9	Y9	Z9	X10	Y10	Z10	X11	Y11	Z11	X12	Y12	Z12	X13	Y13	Z13	X14	Y14	Z14	X15	Y15	Z15	X16	Y16	Z16	X17	Y17	Z17	X18	Y18	Z18	X19	Y19	Z19	X20	Y20	Z20	X21	Y21	Z21	X22	Y22	Z22	X23	Y23	Z23	X24	Y24	Z24	X25	Y25	Z25	X26	Y26	Z26	X27	Y27	Z27	X28	Y28	Z28	X29	Y29	Z29	X30	Y30	Z30	X31	Y31	Z31	X32	Y32	Z32	X33	Y33	Z33	X34	Y34	Z34	X35	Y35	Z35	X36	Y36	Z36	X37	Y37	Z37	X38	Y38	Z38	X39	Y39	Z39	X40	Y40	Z40	X41	Y41	Z41	X42	Y42	Z42	X43	Y43	Z43	X44	Y44	Z44	X45	Y45	Z45	X46	Y46	Z46	X47	Y47	Z47	X48	Y48	Z48	X49	Y49	Z49	X50	Y50	Z50	X51	Y51	Z51	X52	Y52	Z52	X53	Y53	Z53	X54	Y54	Z54	X55	Y55	Z55	X56	Y56	Z56	X57	Y57	Z57	X58	Y58	Z58	X59	Y59	Z59
331	3.31	2.2148	0.92981	0.34607	2.2123	0.9224	0.39409	2.5169	0.46333	0.28681	NaN	NaN	NaN	NaN	NaN	NaN	NaN	NaN	NaN	NaN	NaN	NaN	2.4713	0.26109	0.25134	2.4973	0.21446	0.27755	2.404	0.050923	0.32039	2.4005	0.017412	0.318	NaN	NaN	NaN	NaN	NaN	NaN	1.9677	0.19056	0.35744	1.9445	0.16645	0.35585	2.2666	1.3523	0.55164	2.2683	1.3475	0.19933	2.2451	1.1902	0.14999	2.208	1.0261	0.15012	2.2554	0.92484	0.11054	2.2338	0.8071	0.085771	NaN	NaN	NaN	2.2479	1.2009	0.58745	2.2341	1.0516	0.61181	2.3419	0.94439	0.66019	NaN	NaN	NaN	2.4504	0.081308	0.37527	NaN	NaN	NaN	NaN	NaN	NaN	2.4727	0.065923	0.29267	NaN	NaN	NaN	2.0603	0.28692	0.48052	1.8785	0.21933	0.38912	1.9265	0.061043	0.43986	NaN	NaN	NaN	2.3718	0.86641	0.68404	2.0653	0.34375	0.48123	NaN	NaN	NaN	NaN	NaN	NaN	NaN	NaN	NaN	NaN	NaN	NaN	2.4311	0.8477	0.69536	NaN	NaN	NaN	NaN	NaN	NaN	NaN	NaN	NaN	1.9262	0.19009	0.43325	NaN	NaN	NaN	NaN	NaN	NaN	NaN	NaN	NaN	NaN	NaN	NaN	NaN	NaN	NaN	NaN	NaN	NaN	NaN	NaN	NaN	NaN	NaN	NaN	NaN	NaN	NaN	NaN	NaN	NaN	NaN	NaN	NaN	2.2791	0.69462	0.57795	NaN	NaN	NaN
332	3.32	2.2273	0.93081	0.34693	2.2233	0.92282	0.39442	2.5248	0.46199	0.2876	NaN	NaN	NaN	NaN	NaN	NaN	NaN	NaN	NaN	NaN	NaN	NaN	2.4759	0.26091	0.25202	2.5012	0.21419	0.27829	2.4042	0.051189	0.32016	2.4004	0.01757	0.31789	NaN	NaN	NaN	NaN	NaN	NaN	1.987	0.19866	0.35964	1.9639	0.17404	0.35855	2.2782	1.3537	0.5525	2.2821	1.3481	0.19998	2.2593	1.1901	0.15119	2.224	1.0256	0.15092	2.2729	0.92538	0.11145	2.2536	0.8071	0.087589	NaN	NaN	NaN	2.2595	1.2018	0.58804	2.2442	1.0524	0.611	2.3498	0.94313	0.66025	NaN	NaN	NaN	2.4504	0.081463	0.37516	NaN	NaN	NaN	NaN	NaN	NaN	2.4726	0.065621	0.29282	NaN	NaN	NaN	2.0844	0.28828	0.48458	1.8997	0.22857	0.39108	1.9427	0.070403	0.44469	NaN	NaN	NaN	2.3769	0.86458	0.68386	2.0911	0.34507	0.48564	NaN	NaN	NaN	NaN	NaN	NaN	NaN	NaN	NaN	NaN	NaN	NaN	2.4367	0.8445	0.69609	NaN	NaN	NaN	NaN	NaN	NaN	NaN	NaN	NaN	1.9472	0.19875	0.43568	NaN	NaN	NaN	NaN	NaN	NaN	NaN	NaN	NaN	NaN	NaN	NaN	NaN	NaN	NaN	NaN	NaN	NaN	NaN	NaN	NaN	NaN	NaN	NaN	NaN	NaN	NaN	NaN	NaN	NaN	NaN	NaN	NaN	2.2999	0.69259	0.57931	NaN	NaN	NaN
333	3.33	2.2396	0.93206	0.34764	2.2356	0.92337	0.39547	2.5322	0.46079	0.28827	NaN	NaN	NaN	NaN	NaN	NaN	NaN	NaN	NaN	NaN	NaN	NaN	2.48	0.26122	0.25269	2.5047	0.21381	0.279	2.4041	0.051612	0.32007	2.3996	0.019034	0.31724	NaN	NaN	NaN	NaN	NaN	NaN	2.0101	0.20319	0.36321	1.9859	0.18012	0.36147	2.2896	1.3549	0.55331	2.2965	1.3488	0.20077	2.2754	1.1911	0.15186	2.24	1.0258	0.15154	2.2908	0.92604	0.11313	2.2732	0.80725	0.089275	NaN	NaN	NaN	2.271	1.2032	0.5885	2.2542	1.0534	0.61047	2.3566	0.94154	0.66058	NaN	NaN	NaN	2.4503	0.08145	0.37521	NaN	NaN	NaN	NaN	NaN	NaN	2.4732	0.065995	0.29307	NaN	NaN	NaN	2.1087	0.29028	0.48797	1.9218	0.2364	0.39265	1.9637	0.079792	0.45136	NaN	NaN	NaN	2.3828	0.86316	0.68436	2.1177	0.34601	0.49137	NaN	NaN	NaN	NaN	NaN	NaN	NaN	NaN	NaN	NaN	NaN	NaN	2.4413	0.84099	0.69662	NaN	NaN	NaN	NaN	NaN	NaN	NaN	NaN	NaN	1.9679	0.20814	0.43839	NaN	NaN	NaN	NaN	NaN	NaN	NaN	NaN	NaN	NaN	NaN	NaN	NaN	NaN	NaN	NaN	NaN	NaN	NaN	NaN	NaN	NaN	NaN	NaN	NaN	NaN	NaN	NaN	NaN	NaN	NaN	NaN	NaN	2.3154	0.69305	0.58067	NaN	NaN	NaN
334	3.34	2.2519	0.93331	0.34788	2.2469	0.92461	0.39526	2.5393	0.45952	0.28919	NaN	NaN	NaN	NaN	NaN	NaN	NaN	NaN	NaN	NaN	NaN	NaN	2.4832	0.26099	0.25377	2.5067	0.21318	0.27943	2.4042	0.051897	0.32026	2.3997	0.019542	0.31726	NaN	NaN	NaN	NaN	NaN	NaN	2.0342	0.20797	0.36608	2.0092	0.18497	0.36422	2.3006	1.3563	0.55421	2.3109	1.3497	0.20167	2.2909	1.1914	0.15286	2.2564	1.026	0.15223	2.3093	0.92683	0.11462	2.2938	0.8076	0.091128	NaN	NaN	NaN	2.282	1.2044	0.58909	2.2643	1.0542	0.60985	2.3645	0.94056	0.66095	NaN	NaN	NaN	2.451	0.081527	0.37563	NaN	NaN	NaN	NaN	NaN	NaN	2.4734	0.066046	0.29336	NaN	NaN	NaN	2.1335	0.2924	0.49068	1.9459	0.24271	0.39403	1.9882	0.087542	0.45787	NaN	NaN	NaN	2.3871	0.86216	0.68403	2.1436	0.34749	0.49672	NaN	NaN	NaN	NaN	NaN	NaN	NaN	NaN	NaN	NaN	NaN	NaN	2.4627	0.83423	0.69415	NaN	NaN	NaN	NaN	NaN	NaN	NaN	NaN	NaN	1.9907	0.21499	0.44057	NaN	NaN	NaN	NaN	NaN	NaN	NaN	NaN	NaN	NaN	NaN	NaN	NaN	NaN	NaN	NaN	NaN	NaN	NaN	NaN	NaN	NaN	NaN	NaN	NaN	NaN	NaN	NaN	NaN	NaN	NaN	NaN	NaN	2.3294	0.69408	0.58173	NaN	NaN	NaN
335	3.35	2.2638	0.93497	0.34822	2.2581	0.92507	0.39628	2.5455	0.45807	0.29042	NaN	NaN	NaN	NaN	NaN	NaN	NaN	NaN	NaN	NaN	NaN	NaN	2.485	0.2607	0.25469	2.5086	0.2124	0.27976	2.4042	0.052094	0.3204	2.3997	0.019574	0.31744	NaN	NaN	NaN	NaN	NaN	NaN	2.0581	0.21195	0.3681	2.0339	0.18863	0.36719	2.3112	1.3578	0.55519	2.3253	1.3508	0.20251	2.3067	1.192	0.15372	2.2729	1.0269	0.15285	2.3273	0.92775	0.11623	2.3144	0.80881	0.093195	NaN	NaN	NaN	2.2924	1.2056	0.58954	2.2743	1.0552	0.6098	2.3715	0.93943	0.66158	NaN	NaN	NaN	2.4513	0.081245	0.37593	NaN	NaN	NaN	NaN	NaN	NaN	2.4736	0.065928	0.29382	NaN	NaN	NaN	2.1591	0.29451	0.49259	1.9705	0.24709	0.39617	2.0133	0.094	0.46457	NaN	NaN	NaN	2.3927	0.86086	0.68522	2.17	0.34904	0.50033	NaN	NaN	NaN	NaN	NaN	NaN	NaN	NaN	NaN	NaN	NaN	NaN	2.453	0.83498	0.69786	NaN	NaN	NaN	NaN	NaN	NaN	NaN	NaN	NaN	2.0171	0.21921	0.44298	NaN	NaN	NaN	NaN	NaN	NaN	NaN	NaN	NaN	NaN	NaN	NaN	NaN	NaN	NaN	NaN	NaN	NaN	NaN	NaN	NaN	NaN	NaN	NaN	NaN	NaN	NaN	NaN	NaN	NaN	NaN	NaN	NaN	2.3441	0.69559	0.584	NaN	NaN	NaN
336	3.36	2.2759	0.93669	0.3485	2.2704	0.92738	0.39631	2.5515	0.45667	0.29157	NaN	NaN	NaN	NaN	NaN	NaN	NaN	NaN	NaN	NaN	NaN	NaN	2.487	0.26086	0.2557	2.5096	0.21176	0.27968	2.3998	0.054747	0.31713	2.3996	0.019703	0.31756	NaN	NaN	NaN	NaN	NaN	NaN	2.0836	0.21443	0.37131	2.0593	0.19099	0.37007	2.3217	1.3594	0.556	2.3399	1.3525	0.20354	2.3222	1.1934	0.1549	2.2897	1.0277	0.15378	2.3461	0.92959	0.11809	2.3345	0.80962	0.095278	NaN	NaN	NaN	2.3026	1.2071	0.58992	2.2843	1.0566	0.60989	2.3782	0.93842	0.66224	NaN	NaN	NaN	2.4516	0.081057	0.37634	NaN	NaN	NaN	NaN	NaN	NaN	2.474	0.065939	0.29402	NaN	NaN	NaN	2.1859	0.29574	0.49497	1.996	0.24931	0.39845	2.0404	0.0987	0.47021	NaN	NaN	NaN	2.3968	0.85923	0.68568	2.196	0.35099	0.50279	NaN	NaN	NaN	NaN	NaN	NaN	NaN	NaN	NaN	NaN	NaN	NaN	2.4573	0.83176	0.69836	NaN	NaN	NaN	NaN	NaN	NaN	NaN	NaN	NaN	2.0427	0.22358	0.44608	NaN	NaN	NaN	NaN	NaN	NaN	NaN	NaN	NaN	NaN	NaN	NaN	NaN	NaN	NaN	NaN	NaN	NaN	NaN	NaN	NaN	NaN	NaN	NaN	NaN	NaN	NaN	NaN	NaN	NaN	NaN	NaN	NaN	2.3563	0.69746	0.58464	NaN	NaN	NaN
337	3.37	2.2874	0.93866	0.34887	2.2807	0.92931	0.39601	2.557	0.45525	0.2927	NaN	NaN	NaN	NaN	NaN	NaN	NaN	NaN	NaN	NaN	NaN	NaN	2.4877	0.26038	0.25562	2.5105	0.21093	0.27969	2.4032	0.053596	0.31966	2.3999	0.019983	0.31772	NaN	NaN	NaN	NaN	NaN	NaN	2.11	0.21559	0.37436	2.0862	0.19198	0.37367	2.332	1.3612	0.55691	2.3542	1.3544	0.20478	2.3384	1.1952	0.15596	2.3062	1.0292	0.15427	2.3643	0.93138	0.11989	2.3558	0.81124	0.097661	NaN	NaN	NaN	2.3124	1.209	0.59054	2.294	1.0582	0.61022	2.3849	0.93795	0.66314	NaN	NaN	NaN	2.452	0.080822	0.3767	NaN	NaN	NaN	NaN	NaN	NaN	2.4742	0.065851	0.29428	NaN	NaN	NaN	2.2117	0.29829	0.49727	2.0224	0.24978	0.40187	2.069	0.10115	0.47535	NaN	NaN	NaN	2.4011	0.85821	0.68679	2.2223	0.35353	0.50507	NaN	NaN	NaN	NaN	NaN	NaN	NaN	NaN	NaN	NaN	NaN	NaN	2.4602	0.82879	0.69942	NaN	NaN	NaN	NaN	NaN	NaN	NaN	NaN	NaN	2.07	0.22459	0.4492	NaN	NaN	NaN	NaN	NaN	NaN	NaN	NaN	NaN	NaN	NaN	NaN	NaN	NaN	NaN	NaN	NaN	NaN	NaN	NaN	NaN	NaN	NaN	NaN	NaN	NaN	NaN	NaN	NaN	NaN	NaN	NaN	NaN	2.3701	0.70005	0.5861	NaN	NaN	NaN
338	3.38	2.2992	0.94074	0.34936	2.2921	0.93187	0.39641	2.5621	0.45401	0.29366	NaN	NaN	NaN	NaN	NaN	NaN	NaN	NaN	NaN	NaN	NaN	NaN	2.4892	0.26006	0.2562	NaN	NaN	NaN	2.4026	0.054381	0.31934	2.3999	0.020174	0.31777	NaN	NaN	NaN	NaN	NaN	NaN	2.1369	0.21619	0.37772	2.1127	0.19227	0.37629	2.3423	1.3632	0.55794	2.3687	1.3564	0.20606	2.3534	1.1974	0.15693	2.3221	1.0306	0.15531	2.3825	0.93342	0.12213	2.3763	0.81317	0.10027	NaN	NaN	NaN	2.3221	1.2109	0.59117	2.3035	1.06	0.61055	2.3908	0.93766	0.66402	NaN	NaN	NaN	2.4523	0.08078	0.3771	NaN	NaN	NaN	NaN	NaN	NaN	2.4742	0.065647	0.29468	NaN	NaN	NaN	2.2387	0.29983	0.50107	2.0468	0.24911	0.4057	2.0997	0.1018	0.48011	NaN	NaN	NaN	2.4048	0.85764	0.68768	2.2494	0.35471	0.50742	NaN	NaN	NaN	NaN	NaN	NaN	NaN	NaN	NaN	NaN	NaN	NaN	2.4629	0.82595	0.70039	NaN	NaN	NaN	NaN	NaN	NaN	NaN	NaN	NaN	2.0954	0.22487	0.45283	NaN	NaN	NaN	NaN	NaN	NaN	NaN	NaN	NaN	NaN	NaN	NaN	NaN	NaN	NaN	NaN	NaN	NaN	NaN	NaN	NaN	NaN	NaN	NaN	NaN	NaN	NaN	NaN	NaN	NaN	NaN	NaN	NaN	2.3816	0.70211	0.58702	NaN	NaN	NaN
